<!--?xml version="1.0" encoding="UTF-8"?-->

<!-- Creator: CorelDRAW -->
<svg xmlns="http://www.w3.org/2000/svg" xml:space="preserve" width="12.1028in" height="1.475in" version="1.1" style="shape-rendering: geometricprecision; text-rendering: geometricprecision; fill-rule: evenodd; clip-rule: evenodd;" viewBox="0 0 10665.24 1299.81" xmlns:xlink="http://www.w3.org/1999/xlink" xmlns:xodm="http://www.corel.com/coreldraw/odm/2003">
 <defs>
  <style type="text/css">
   
    .str0 {stroke:#FFF212;stroke-width:36.72;stroke-miterlimit:2.61313}
    .str2 {stroke:#ED3237;stroke-width:36.72;stroke-miterlimit:2.61313}
    .str1 {stroke:#0098DA;stroke-width:36.72;stroke-miterlimit:2.61313}
    .fil0 {fill:none;fill-rule:nonzero}
   
  </style>
 </defs>
 <g id="Layer_x0020_1">
  <metadata id="CorelCorpID_0Corel-Layer"></metadata>
  <path class="fil0 str0 BTJAaQaq_0" d="M10455.95 62.42c0,-13.06 4.49,-23.66 13.46,-31.82 8.98,-8.16 19.18,-12.24 30.6,-12.24l102.81 0c11.42,0 21.62,4.08 30.6,12.24 8.98,8.16 13.46,18.77 13.46,31.82l0 1174.96c0,11.42 -4.49,21.62 -13.46,30.6 -8.98,8.98 -19.18,13.46 -30.6,13.46l-102.81 0c-11.42,0 -21.62,-4.49 -30.6,-13.46 -8.98,-8.98 -13.46,-19.17 -13.46,-30.6l0 -1174.96z"></path>
  <path class="fil0 str1 BTJAaQaq_1" d="M8806.11 1239.83c0,-29.38 13.06,-59.57 39.17,-90.57l665.81 -798c4.9,-8.16 11.83,-14.28 20.81,-18.36 8.98,-4.08 16.73,-6.12 23.26,-6.12l161.56 0c8.16,0 12.24,3.26 12.24,9.79 0,6.53 -2.45,13.06 -7.34,19.58l-633.99 756.38 820.03 0c13.06,0 23.66,4.08 31.82,12.24 8.16,8.16 12.24,18.77 12.24,31.82l0 80.78c0,13.06 -4.08,23.66 -12.24,31.82 -8.16,8.16 -18.77,12.24 -31.82,12.24l-1057.47 0c-13.06,0 -23.66,-3.67 -31.82,-11.02 -8.16,-7.34 -12.24,-17.54 -12.24,-30.6z"></path>
  <path class="fil0 str1 BTJAaQaq_2" d="M8879.54 62.42c0,-13.06 4.08,-23.66 12.24,-31.82 8.16,-8.16 18.77,-12.24 31.82,-12.24l969.35 0c13.06,0 23.66,4.08 31.82,12.24 8.16,8.16 12.24,18.77 12.24,31.82 0,35.9 -12.24,65.69 -36.72,89.35 -24.48,23.66 -54.67,35.49 -90.57,35.49l-886.12 0c-13.05,0 -23.66,-4.08 -31.82,-12.24 -8.16,-8.16 -12.24,-18.77 -12.24,-31.82l0 -80.78z"></path>
  <path class="fil0 str0 BTJAaQaq_3" d="M7283.55 1237.38c0,13.06 -4.08,23.66 -12.24,31.82 -8.16,8.16 -18.77,12.24 -31.82,12.24l-83.23 0c-13.06,0 -23.66,-4.08 -31.82,-12.24 -8.16,-8.16 -12.24,-18.77 -12.24,-31.82l0 -962c0,-9.79 3.26,-14.69 9.79,-14.69 6.53,0 16.32,7.34 29.37,22.03l115.05 134.63c11.42,14.69 17.14,27.74 17.14,39.17l0 780.86z"></path>
  <path class="fil0 str0 BTJAaQaq_4" d="M8191.7 64.87c0,-13.06 4.49,-24.07 13.46,-33.05 9.38,-8.98 20.4,-13.46 33.86,-13.46l81.6 0c13.46,0 24.48,4.49 33.86,13.46 8.98,8.98 13.46,19.99 13.46,33.05l0 1172.51c0,13.06 -4.49,23.66 -13.46,31.82 -8.98,8.16 -19.99,12.24 -33.05,12.24l-90.98 0c-11.42,0 -24.89,-3.67 -40.39,-11.02 -15.5,-7.34 -28.15,-16.73 -37.94,-28.15l-1030.13 -1184.75c-8.16,-8.16 -12.24,-17.14 -12.24,-26.93 0,-8.16 5.71,-12.24 17.14,-12.24l149.32 0c11.42,0 23.66,6.53 36.72,19.58l878.77 1015.85 0 -988.93z"></path>
  <path class="fil0 str2 BTJAaQaq_5" d="M5880.94 583.81c0,-13.06 4.08,-23.66 12.24,-31.82 8.16,-8.16 18.77,-12.24 31.82,-12.24l614.41 0c11.42,0 21.62,4.08 30.6,12.24 8.98,8.16 13.46,18.77 13.46,31.82l0 75.88c0,13.06 -4.49,23.66 -13.46,31.82 -8.98,8.16 -19.18,12.24 -30.6,12.24l-614.41 0c-13.06,0 -23.66,-4.08 -31.82,-12.24 -8.16,-8.16 -12.24,-18.77 -12.24,-31.82l0 -75.88z"></path>
  <path class="fil0 str2 BTJAaQaq_6" d="M5746.31 1112.55l868.98 0c11.42,0 21.62,4.49 30.6,13.46 8.98,8.98 13.46,19.99 13.46,33.05l0 78.33c0,11.42 -4.49,21.62 -13.46,30.6 -8.98,8.98 -19.18,13.46 -30.6,13.46l-1013.41 0c-11.42,0 -21.62,-4.49 -30.6,-13.46 -8.98,-8.98 -13.46,-19.17 -13.46,-30.6l0 -1172.51c0,-13.06 4.49,-24.07 13.46,-33.05 8.98,-8.98 19.18,-13.46 30.6,-13.46l1001.17 0c13.06,0 24.07,4.49 33.05,13.46 8.98,8.98 13.46,19.99 13.46,33.05l0 78.33c0,11.42 -4.49,21.62 -13.46,30.6 -8.98,8.98 -19.99,13.46 -33.05,13.46l-856.75 0 0 925.29z"></path>
  <path class="fil0 str0 BTJAaQaq_7" d="M4789.2 461.42c0,-11.42 5.71,-24.48 17.14,-39.17l119.53 -139.53c11.42,-14.69 21.62,-22.03 29.78,-22.03 6.53,0 9.79,4.9 9.79,14.69l0 962c0,13.06 -4.49,23.66 -13.46,31.82 -9.38,8.16 -20.4,12.24 -33.86,12.24l-84.04 0c-13.46,0 -24.07,-4.08 -32.64,-12.24 -8.16,-8.16 -12.24,-18.77 -12.24,-31.82l0 -775.96z"></path>
  <path class="fil0 str0 BTJAaQaq_8" d="M3567.73 64.87c0,-13.06 4.08,-24.07 12.24,-33.05 8.57,-8.98 19.18,-13.46 32.64,-13.46l74.25 0c18.36,0 34.27,6.53 47.33,19.58l529.96 624.2 517.72 -624.2c11.42,-13.06 24.07,-19.58 37.13,-19.58l131.77 0c11.42,0 17.14,4.9 17.14,14.69 0,4.9 -4.08,13.06 -12.24,24.48l-651.13 778.41c-1.63,3.26 -4.9,6.53 -9.79,9.79 -9.79,6.53 -19.58,9.79 -29.37,9.79 -11.42,0 -22.03,-3.26 -31.82,-9.79 -4.9,-3.26 -8.16,-6.53 -9.79,-9.79l-494.46 -572.79 0 974.24c0,13.06 -4.49,23.66 -13.87,31.82 -8.98,8.16 -19.99,12.24 -33.46,12.24l-69.36 0c-13.46,0 -24.07,-4.08 -32.64,-12.24 -8.16,-8.16 -12.24,-18.77 -12.24,-31.82l0 -1172.51z"></path>
  <path class="fil0 str1 BTJAaQaq_9" d="M1861.59,1112.55L2796.66,1112.55L2796.66,187.26L1861.59,187.26Z"></path>
  <path class="fil0 str1 BTJAaQaq_10" d="M1670.65 184.81c0,-19.58 5.3,-39.17 15.91,-58.75 10.61,-19.58 23.66,-37.13 39.17,-52.63 15.5,-15.5 33.05,-28.56 52.63,-39.17 19.58,-10.61 39.17,-15.91 58.75,-15.91l984.03 0c19.58,0 39.17,5.3 58.75,15.91 19.58,10.61 37.13,23.66 52.63,39.17 15.5,15.5 28.56,33.05 39.16,52.63 10.61,19.58 15.91,39.16 15.91,58.75l0 930.18c0,19.58 -5.3,39.17 -15.91,58.75 -10.61,19.58 -23.66,37.12 -39.16,52.63 -15.5,15.5 -33.05,28.56 -52.63,39.17 -19.58,10.61 -39.17,15.91 -58.75,15.91l-984.03 0c-19.58,0 -39.17,-5.3 -58.75,-15.91 -19.58,-10.61 -37.13,-23.66 -52.63,-39.17 -15.5,-15.5 -28.56,-33.05 -39.17,-52.63 -10.61,-19.58 -15.91,-39.17 -15.91,-58.75l0 -930.18z"></path>
  <path class="fil0 str0 BTJAaQaq_11" d="M18.36 152.99c0,-29.38 12.24,-59.16 36.72,-89.35 24.48,-30.19 57.93,-45.29 100.36,-45.29l959.55 0c13.06,0 23.66,4.49 31.82,13.46 8.16,8.98 12.24,19.18 12.24,30.6l0 80.78c0,13.06 -4.08,23.66 -12.24,31.82 -8.16,8.16 -18.77,12.24 -31.82,12.24l-905.7 0 0 925.29 937.52 0c13.06,0 23.66,4.08 31.82,12.24 8.16,8.16 12.24,18.77 12.24,31.82l0 80.78c0,11.42 -4.08,21.62 -12.24,30.6 -8.16,8.98 -18.77,13.46 -31.82,13.46l-993.82 0c-39.17,0 -71.4,-13.87 -96.69,-41.61 -25.3,-27.74 -37.94,-58.75 -37.94,-93.02l0 -993.82z"></path>
 </g>
<style data-made-with="vivus-instant">.BTJAaQaq_0{stroke-dasharray:2832 2834;stroke-dashoffset:2833;animation:BTJAaQaq_draw_0 7200ms ease-in-out 0ms infinite,BTJAaQaq_fade 7200ms linear 0ms infinite;}.BTJAaQaq_1{stroke-dasharray:4548 4550;stroke-dashoffset:4549;animation:BTJAaQaq_draw_1 7200ms ease-in-out 0ms infinite,BTJAaQaq_fade 7200ms linear 0ms infinite;}.BTJAaQaq_2{stroke-dasharray:2346 2348;stroke-dashoffset:2347;animation:BTJAaQaq_draw_2 7200ms ease-in-out 0ms infinite,BTJAaQaq_fade 7200ms linear 0ms infinite;}.BTJAaQaq_3{stroke-dasharray:2245 2247;stroke-dashoffset:2246;animation:BTJAaQaq_draw_3 7200ms ease-in-out 0ms infinite,BTJAaQaq_fade 7200ms linear 0ms infinite;}.BTJAaQaq_4{stroke-dasharray:5804 5806;stroke-dashoffset:5805;animation:BTJAaQaq_draw_4 7200ms ease-in-out 0ms infinite,BTJAaQaq_fade 7200ms linear 0ms infinite;}.BTJAaQaq_5{stroke-dasharray:1660 1662;stroke-dashoffset:1661;animation:BTJAaQaq_draw_5 7200ms ease-in-out 0ms infinite,BTJAaQaq_fade 7200ms linear 0ms infinite;}.BTJAaQaq_6{stroke-dasharray:6419 6421;stroke-dashoffset:6420;animation:BTJAaQaq_draw_6 7200ms ease-in-out 0ms infinite,BTJAaQaq_fade 7200ms linear 0ms infinite;}.BTJAaQaq_7{stroke-dasharray:2251 2253;stroke-dashoffset:2252;animation:BTJAaQaq_draw_7 7200ms ease-in-out 0ms infinite,BTJAaQaq_fade 7200ms linear 0ms infinite;}.BTJAaQaq_8{stroke-dasharray:6282 6284;stroke-dashoffset:6283;animation:BTJAaQaq_draw_8 7200ms ease-in-out 0ms infinite,BTJAaQaq_fade 7200ms linear 0ms infinite;}.BTJAaQaq_9{stroke-dasharray:3721 3723;stroke-dashoffset:3722;animation:BTJAaQaq_draw_9 7200ms ease-in-out 0ms infinite,BTJAaQaq_fade 7200ms linear 0ms infinite;}.BTJAaQaq_10{stroke-dasharray:4848 4850;stroke-dashoffset:4849;animation:BTJAaQaq_draw_10 7200ms ease-in-out 0ms infinite,BTJAaQaq_fade 7200ms linear 0ms infinite;}.BTJAaQaq_11{stroke-dasharray:6581 6583;stroke-dashoffset:6582;animation:BTJAaQaq_draw_11 7200ms ease-in-out 0ms infinite,BTJAaQaq_fade 7200ms linear 0ms infinite;}@keyframes BTJAaQaq_draw{100%{stroke-dashoffset:0;}}@keyframes BTJAaQaq_fade{0%{stroke-opacity:1;}94.44444444444444%{stroke-opacity:1;}100%{stroke-opacity:0;}}@keyframes BTJAaQaq_draw_0{11.11111111111111%{stroke-dashoffset: 2833}38.88888888888889%{ stroke-dashoffset: 0;}100%{ stroke-dashoffset: 0;}}@keyframes BTJAaQaq_draw_1{12.373737373737374%{stroke-dashoffset: 4549}40.151515151515156%{ stroke-dashoffset: 0;}100%{ stroke-dashoffset: 0;}}@keyframes BTJAaQaq_draw_2{13.636363636363635%{stroke-dashoffset: 2347}41.41414141414141%{ stroke-dashoffset: 0;}100%{ stroke-dashoffset: 0;}}@keyframes BTJAaQaq_draw_3{14.8989898989899%{stroke-dashoffset: 2246}42.67676767676768%{ stroke-dashoffset: 0;}100%{ stroke-dashoffset: 0;}}@keyframes BTJAaQaq_draw_4{16.16161616161616%{stroke-dashoffset: 5805}43.93939393939394%{ stroke-dashoffset: 0;}100%{ stroke-dashoffset: 0;}}@keyframes BTJAaQaq_draw_5{17.424242424242422%{stroke-dashoffset: 1661}45.2020202020202%{ stroke-dashoffset: 0;}100%{ stroke-dashoffset: 0;}}@keyframes BTJAaQaq_draw_6{18.68686868686869%{stroke-dashoffset: 6420}46.464646464646464%{ stroke-dashoffset: 0;}100%{ stroke-dashoffset: 0;}}@keyframes BTJAaQaq_draw_7{19.94949494949495%{stroke-dashoffset: 2252}47.72727272727273%{ stroke-dashoffset: 0;}100%{ stroke-dashoffset: 0;}}@keyframes BTJAaQaq_draw_8{21.21212121212121%{stroke-dashoffset: 6283}48.98989898989899%{ stroke-dashoffset: 0;}100%{ stroke-dashoffset: 0;}}@keyframes BTJAaQaq_draw_9{22.474747474747474%{stroke-dashoffset: 3722}50.252525252525245%{ stroke-dashoffset: 0;}100%{ stroke-dashoffset: 0;}}@keyframes BTJAaQaq_draw_10{23.737373737373737%{stroke-dashoffset: 4849}51.515151515151516%{ stroke-dashoffset: 0;}100%{ stroke-dashoffset: 0;}}@keyframes BTJAaQaq_draw_11{25%{stroke-dashoffset: 6582}52.77777777777778%{ stroke-dashoffset: 0;}100%{ stroke-dashoffset: 0;}}</style></svg>
