<?xml version="1.0" encoding="UTF-8"?>
<!DOCTYPE svg PUBLIC "-//W3C//DTD SVG 1.1//EN" "http://www.w3.org/Graphics/SVG/1.1/DTD/svg11.dtd">
<!-- Creator: CorelDRAW -->
<svg xmlns="http://www.w3.org/2000/svg" xml:space="preserve" width="10.5973in" height="3.99252in" version="1.1" style="shape-rendering:geometricPrecision; text-rendering:geometricPrecision; image-rendering:optimizeQuality; fill-rule:evenodd; clip-rule:evenodd"
viewBox="0 0 3049.41 1148.86"
 xmlns:xlink="http://www.w3.org/1999/xlink"
 xmlns:xodm="http://www.corel.com/coreldraw/odm/2003">
 <defs>
  <style type="text/css">
   <![CDATA[
    .fil1 {fill:#FEFEFE}
    .fil0 {fill:#FFED00}
    .fil3 {fill:#FEFEFE;fill-rule:nonzero}
    .fil2 {fill:#FFED00;fill-rule:nonzero}
   ]]>
  </style>
 </defs>
 <g id="Layer_x0020_1">
  <metadata id="CorelCorpID_0Corel-Layer"/>
  <g id="_2010570195968">
   <path class="fil0" d="M1423.32 23.25l0.65 331.29 150.47 123.34 0.65 -347.43 240.88 0.01c71.68,0 83.31,104.62 -7.75,104.62l-207.3 0.65c15.5,27.12 117.54,115.6 150.47,114.95 125.93,-1.94 229.9,15.5 261.54,-103.97 22.6,-85.89 12.27,-184.05 -47.79,-221.51 -17.44,-10.98 -59.41,-21.95 -113.66,-22.6l-428.16 -1.94 0.01 22.59z"/>
   <path class="fil1" d="M1575.08 514.05l-151.11 -123.99 -216.99 -0.65c-25.83,0 -43.27,1.29 -43.91,-25.19l-1.29 -204.07c0,-19.38 20.67,-29.71 36.81,-29.71l186.63 0.65 0.65 -130.45 -238.94 -0.65c-81.37,0 -119.47,32.29 -120.11,102.04l-1.29 289.96c-0.65,105.91 67.16,123.34 191.15,122.7l358.42 -0.65z"/>
   <path class="fil2" d="M2419.77 1092.03c-14.85,0 -27.12,-5.17 -37.45,-14.85 -9.87,-9.61 -15.47,-22.76 -15.47,-36.54 0,-0.32 0,-0.63 0,-0.95l0 -102.68 26.45 0.03 0 53.6 26.48 0 0 22.6 -26.48 0 0 26.48c0,7.1 2.58,13.56 7.75,18.73 5.17,4.52 10.98,7.1 18.73,7.1l0 26.48z"/>
   <path class="fil2" d="M2353.26 1092.03l-26.48 0 0 -49.08c0.08,-0.14 0.08,-0.23 0.08,-0.32 0,-6.96 -2.8,-13.6 -7.77,-18.48 -4.93,-4.57 -11.39,-7.1 -18.07,-7.1 0,0 -0.04,0 -0.04,0 -0.41,0 -0.82,0 -1.22,0 -13.97,0 -25.26,11.3 -25.26,25.26 0,0.22 0,0.4 0,0.63l0 49.08 -26.49 0.01 0 -49.08c0,-14.85 5.17,-27.12 15.5,-37.45 10.33,-10.33 22.6,-14.85 37.45,-14.85 14.21,0 27.12,4.52 36.81,14.85 10.33,10.33 15.5,22.6 15.5,37.45l0 49.08z"/>
   <polygon class="fil2" points="2234.43,1092.03 2207.96,1092.03 2207.96,990.64 2234.43,990.64 "/>
   <path class="fil3" d="M2237.01 968.04c0,4.52 -1.29,7.75 -4.52,10.98 -3.23,3.23 -7.1,4.52 -10.98,4.52 -4.52,0 -8.39,-1.29 -11.62,-4.52 -2.82,-2.72 -4.44,-6.52 -4.44,-10.45 0,-0.18 0,-0.41 0,-0.59 0,-4.52 1.29,-8.39 4.52,-11.62 3.23,-2.58 7.1,-4.52 11.62,-4.52 3.88,0 7.75,1.94 10.98,4.52 3.23,3.23 4.52,7.1 4.52,11.62l-0.08 0.06z"/>
   <path class="fil2" d="M2195.04 1016.47c-0.03,-0.05 -0.12,-0.05 -0.21,-0.05 -6.96,0 -13.6,2.8 -18.48,7.77 -5.17,5.17 -7.75,10.98 -7.75,18.73l0 49.08 -26.52 0.03 0 -49.08c0,-14.85 5.17,-27.12 15.5,-37.45 10.33,-10.33 22.6,-14.85 37.45,-14.85l0 25.83z"/>
   <path class="fil2" d="M2128.52 1042.95c0,14.21 -4.52,27.12 -14.85,36.81 -10.33,10.33 -22.6,15.5 -37.45,15.5 -9.04,0 -18.09,-2.58 -25.83,-7.1l0 60.71 -26.48 -0 0 -105.91c0,-14.85 5.17,-27.12 14.85,-37.46 10.33,-10.33 22.6,-14.85 37.46,-14.85 14.85,0 27.12,4.52 37.45,14.85 10.33,10.33 14.85,22.6 14.85,37.46zm-26.48 0c0,-7.1 -1.94,-13.56 -7.1,-18.73 -4.68,-4.59 -11,-7.17 -17.55,-7.17 -0.36,0 -0.77,0 -1.13,0.05 -7.1,0 -12.91,1.94 -18.08,7.1 -4.91,4.83 -7.71,11.48 -7.71,18.39 0,6.91 2.8,13.56 7.73,18.43 4.84,4.88 11.47,7.68 18.39,7.68 6.91,0 13.56,-2.8 18.44,-7.73 4.52,-4.43 7.09,-10.57 7.09,-16.99 0,-0.36 0,-0.72 -0.04,-1.04l-0.02 0.01z"/>
   <path class="fil2" d="M1924.45 1042.95c0.03,0.17 0.03,0.4 0.03,0.62 0,28.51 -23.14,51.65 -51.65,51.65 -0.41,0 -0.86,0 -1.31,0 -14.21,0 -27.12,-5.17 -36.81,-15.5 -9.87,-9.31 -15.47,-22.32 -15.47,-35.87 0,-0.32 0,-0.63 0,-0.91l0 -52.31 26.42 0.01 0 52.31c0,7.1 2.58,12.91 7.75,18.08 4.52,5.17 10.98,7.75 18.08,7.75 0.12,-0.03 0.21,-0.03 0.3,-0.03 6.96,0 13.6,-2.81 18.48,-7.78 5.17,-5.17 7.75,-10.98 7.75,-18.08l0 -52.31 26.43 0.06 0 52.31z"/>
   <path class="fil2" d="M1806.27 1016.47c-7.75,0 -13.56,2.58 -18.73,7.75 -5.17,5.16 -7.75,10.98 -7.75,18.73l0 49.08 -26.48 0 0 -49.08c0,-14.85 5.17,-27.12 15.5,-37.45 10.33,-10.33 22.6,-14.85 37.45,-14.85l0 25.83z"/>
   <path class="fil2" d="M1739.76 1092.03c-14.21,0 -27.12,-5.17 -36.81,-14.85 -9.86,-9.61 -15.46,-22.76 -15.46,-36.54 0,-0.32 0,-0.63 0,-0.95l0 -102.68 26.44 0.03 0 53.6 25.83 0 0 22.6 -25.83 0 0 26.48c0,7.1 2.58,13.56 7.75,18.73 5.17,4.52 10.98,7.1 18.08,7.1l0 26.48z"/>
   <path class="fil2" d="M1673.89 1092.03l-26.48 0 0 -49.08c0.05,-0.14 0.05,-0.23 0.05,-0.32 0,-6.96 -2.81,-13.6 -7.78,-18.48 -4.88,-4.57 -11.34,-7.1 -18.03,-7.1 0,0 -0.05,0 -0.05,0 -7.75,0 -13.56,1.94 -18.73,7.1 -5.17,5.16 -7.75,10.98 -7.75,18.73l0 49.08 -26.51 0.07 0 -49.08c0,-14.85 5.17,-27.12 15.5,-37.45 10.33,-10.33 22.6,-14.85 37.45,-14.85 14.21,0 26.48,4.52 36.81,14.85 10.33,10.33 15.5,22.6 15.5,37.45l0.01 49.08z"/>
   <path class="fil2" d="M1555.06 1042.3c0,2.58 0,5.82 -0.65,8.39l-76.85 0c3.93,10.58 13.91,17.77 25.21,18.04 7.75,0 14.21,-3.23 19.37,-9.04l16.15 21.31c-9.69,9.04 -21.96,14.21 -35.52,14.21 -0.46,0 -0.9,0 -1.36,0 -13.65,0 -26.7,-5.6 -36.06,-15.5 -9.89,-9.31 -15.5,-22.32 -15.5,-35.87 0,-0.32 0,-0.63 0,-0.91 0,-14.85 5.17,-27.12 15.5,-37.46 10.33,-10.33 22.6,-14.85 37.45,-14.85 14.21,0 27.12,4.52 36.81,14.85 10.33,10.33 15.5,22.6 15.5,36.81l-0.07 0.01zm-29.71 -11.63c-4.01,-8.34 -12.46,-13.63 -21.72,-13.63 -0.27,0 -0.59,0 -0.86,0 -0.4,0 -0.86,0 -1.27,0 -9.31,0 -17.8,5.29 -21.96,13.6l45.8 0.03z"/>
   <path class="fil2" d="M1436.23 1042.95c0,14.21 -5.17,27.12 -14.85,36.81 -10.33,10.33 -22.6,15.5 -37.45,15.5 -9.04,0 -18.08,-2.58 -25.83,-7.1l0 60.71 -26.48 -0 0 -105.91c0,-14.85 5.17,-27.12 14.85,-37.46 10.33,-10.33 22.6,-14.85 37.46,-14.85 14.85,0 27.12,4.52 37.45,14.85 9.69,10.33 14.85,22.6 14.85,37.46zm-26.48 0c0,-7.1 -2.58,-13.56 -7.1,-18.73 -4.66,-4.59 -10.99,-7.17 -17.54,-7.17 -0.36,0 -0.77,0 -1.13,0.05 -7.1,0 -13.56,1.94 -18.08,7.1 -4.91,4.83 -7.72,11.48 -7.72,18.39 0,6.91 2.81,13.56 7.73,18.43 4.52,5.17 10.98,7.75 18.08,7.75 0.08,-0.02 0.17,-0.02 0.26,-0.02 6.96,0 13.6,-2.81 18.48,-7.78 4.52,-4.88 7.05,-11.34 7.05,-18.03 0,0 0,-0.04 0,-0.04l-0.03 0.06z"/>
   <path class="fil2" d="M1231.52 1042.3c0,2.58 0,5.82 -0.65,8.39l-76.21 0c1.29,5.17 4.52,9.68 9.04,12.91 4.57,3.32 10.08,5.13 15.73,5.13 7.64,0 14.86,-3.3 19.88,-9.08l16.14 21.31c-10.33,9.04 -21.95,14.21 -36.16,14.21 -14.85,0 -27.12,-5.17 -37.45,-15.5 -9.54,-9.58 -14.88,-22.55 -14.88,-36.06 0,-0.23 0,-0.5 0,-0.72 0,-14.85 5.17,-27.12 14.85,-37.45 10.33,-10.33 22.6,-14.85 37.45,-14.85 14.85,0 27.12,4.52 37.45,14.85 9.68,10.33 14.85,22.6 14.85,36.81l-0.07 0.05zm-29.71 -11.63c-3.81,-8.39 -12.12,-13.67 -21.3,-13.67 -0.4,0 -0.81,0 -1.27,0.04 -10.33,0 -18.08,4.52 -22.6,13.56l45.16 0.07z"/>
   <path class="fil2" d="M1113.34 1092.03l-26.48 0 0 -49.08c0.08,-0.14 0.08,-0.23 0.08,-0.32 0,-6.96 -2.8,-13.6 -7.77,-18.48 -5.15,-4.52 -11.84,-7.05 -18.71,-7.05 0,0 0,0 -0.04,0 -7.1,0 -12.91,1.94 -18.08,7.1 -5.17,5.16 -7.75,10.98 -7.75,18.73l0 49.08 -26.51 0.02 0 -49.08c0,-14.85 5.17,-27.12 15.5,-37.45 9.69,-10.33 22.6,-14.85 36.81,-14.85 14.85,0 27.12,4.52 37.46,14.85 10.33,10.33 15.5,22.6 15.5,37.45l0 49.08z"/>
   <path class="fil2" d="M994.52 1042.95c0.02,0.17 0.02,0.4 0.02,0.62 0,28.51 -23.13,51.65 -51.65,51.65 -0.4,0 -0.86,0 -1.31,0 -14.21,0 -27.12,-5.17 -36.81,-15.5 -9.87,-9.31 -15.47,-22.32 -15.47,-35.87 0,-0.32 0,-0.63 0,-0.91l0 -52.31 26.43 0.01 0 52.31c0,7.1 2.59,12.91 7.75,18.08 4.91,4.86 11.55,7.67 18.47,7.67 6.91,0 13.56,-2.8 18.43,-7.73 5.17,-5.17 7.75,-10.98 7.75,-18.08l0 -52.31 26.39 0.06 0 52.31z"/>
   <polygon class="fil2" points="875.69,1092.03 849.21,1092.03 849.21,990.64 875.69,990.64 "/>
   <path class="fil3" d="M878.27 968.04c0,4.52 -1.94,7.75 -4.52,10.98 -3.23,3.23 -7.1,4.52 -11.62,4.52 -0.12,-0.06 -0.34,-0.06 -0.52,-0.06 -3.93,0 -7.72,-1.62 -10.39,-4.52 -2.89,-2.67 -4.52,-6.46 -4.52,-10.39 0,-0.18 0,-0.41 0,-0.59 0,-4.52 1.29,-8.39 4.52,-11.62 3.23,-2.58 6.46,-4.52 10.98,-4.52 4.52,0 8.39,1.94 10.98,4.52 3.23,3.23 5.17,7.1 5.17,11.62l-0.06 0.06z"/>
   <path class="fil2" d="M835.65 1062.32c0,5.81 -2.58,11.62 -6.46,16.79 -8.39,10.33 -20.02,15.5 -35.52,14.85 -6.46,0 -12.91,-1.29 -20.67,-3.88 -6.43,-2.15 -12.39,-5.67 -17.36,-10.37l14.85 -18.73c7.1,6.46 14.21,9.68 22.6,9.68l0.57 0.04c3.23,0 5.81,0 8.39,-1.29 3.88,-1.94 5.17,-3.88 5.17,-7.1l0 -0.65c0,-2.58 -2.58,-5.17 -5.81,-6.46 -1.29,0 -4.52,-0.65 -9.04,-1.94 -6.46,-0.65 -10.98,-2.58 -15.5,-3.88 -10.44,-4.16 -17.4,-14.33 -17.4,-25.63 0,-0.5 0,-1.04 0.04,-1.54 0,-12.27 5.82,-21.31 18.09,-27.77 5.17,-2.58 10.98,-3.88 17.44,-3.88 6.46,-0.65 13.56,0.65 20.67,3.23 7.75,2.58 13.56,6.46 16.79,10.33l-17.44 16.14c-3.85,-4.25 -9.23,-6.83 -14.92,-7.1 -8.39,0 -12.27,2.58 -12.27,8.39l0 0.65c0,2.58 3.23,4.52 9.69,6.46 0.65,0 5.17,0.64 12.92,2.58 16.79,3.23 25.18,12.91 25.18,30.35l-0.02 0.67z"/>
   <path class="fil2" d="M742.01 1092.03l-28.42 0 -5.17 -14.85c-10.33,12.27 -23.89,18.08 -40.04,18.08 -14.85,0 -27.12,-5.17 -37.45,-15.5 -9.49,-9.07 -14.87,-21.63 -14.87,-34.74 0,-0.72 0,-1.45 0.04,-2.13 0,-10.98 2.58,-21.31 9.04,-30.35 6.46,-9.05 14.85,-14.85 25.19,-18.73 6.46,-2.58 12.27,-3.23 18.08,-3.23 10.98,0 21.31,2.58 30.35,9.04 9.05,6.46 14.85,14.85 18.73,25.19l24.51 67.22zm-47.79 -49.08c0.02,-0.19 0.02,-0.37 0.02,-0.55 0,-8.32 -4.11,-16.09 -10.98,-20.78 -4.2,-2.94 -9.21,-4.52 -14.37,-4.52 -0.13,0 -0.31,0 -0.45,0 -9.04,0 -16.14,3.23 -21.31,10.98 -2.91,4.21 -4.49,9.22 -4.49,14.37 0,0.14 0,0.31 0,0.45 0,9.04 3.23,16.14 10.98,21.31 4.52,3.23 9.69,4.52 14.85,4.52 7.1,0 12.92,-2.58 18.08,-7.75 5.17,-4.52 7.75,-10.98 7.75,-18.08l-0.08 0.06z"/>
   <path class="fil2" d="M601.88 1042.95c0,14.21 -5.17,27.12 -14.85,36.81 -10.33,10.33 -22.6,15.5 -37.46,15.5 -9.04,0 -18.08,-2.58 -25.83,-7.1l0 60.71 -26.48 -0 0 -105.91c0,-14.85 5.17,-27.12 14.85,-37.46 10.33,-10.33 22.6,-14.85 37.45,-14.85 14.85,0 27.12,4.52 37.45,14.85 9.69,10.33 14.85,22.6 14.85,37.46l0.01 0zm-26.48 0c0,-7.1 -2.58,-13.56 -7.1,-18.73 -4.64,-4.59 -10.97,-7.17 -17.52,-7.17 -0.37,0 -0.77,0 -1.13,0.05 -7.1,0 -12.91,1.94 -18.08,7.1 -4.96,4.83 -7.76,11.48 -7.76,18.39 0,6.91 2.81,13.56 7.73,18.43 4.83,4.88 11.48,7.68 18.39,7.68 6.91,0 13.56,-2.8 18.44,-7.73 4.56,-4.88 7.09,-11.34 7.09,-18.03 0,0 0,-0.04 0,-0.04l-0.05 0.06z"/>
   <path class="fil2" d="M1747.5 608.98l160.8 0c29.06,0 51.66,7.75 67.16,22.6 15.5,15.5 23.25,37.45 23.25,66.51 0,29.71 -7.75,52.31 -23.25,68.45 -15.5,15.5 -38.1,23.89 -67.16,23.89l-79.43 0.01c-14.85,0 -22.6,-8.39 -22.6,-23.89 0,-15.5 7.75,-22.6 22.6,-22.6l74.26 -0c16.79,0 28.42,-3.23 34.88,-9.69 5.81,-6.46 9.04,-18.08 9.04,-34.88 0,-8.39 -0.65,-15.5 -1.94,-21.31 -1.29,-5.81 -3.23,-10.33 -7.1,-13.56 -3.68,-3.66 -8.43,-6.15 -13.49,-7.14 -5.17,-1.29 -12.27,-1.94 -21.31,-1.94l-129.88 0.03 0 218.28c0,16.14 -9.04,24.54 -27.12,24.54 -16.14,0 -24.54,-8.39 -24.54,-24.54l0 -238.94c0,-17.44 8.39,-25.83 25.83,-25.83z"/>
   <path class="fil3" d="M2906.05 875.05l0 -123.99c0,-15.5 7.75,-22.6 23.25,-22.6l1.29 -0.01c14.85,0 22.6,7.1 22.6,22.6l0 123.99c0,15.5 -7.75,23.25 -23.89,23.25 -15.5,0 -23.25,-7.75 -23.25,-23.25l0 0.01z"/>
   <path class="fil3" d="M2810.48 680.01c0,-14.21 7.1,-21.31 21.31,-21.31l196.32 0c14.21,0 21.31,7.1 21.31,21.96 0,14.21 -7.1,20.67 -21.31,20.67l-196.32 0c-14.21,0 -21.31,-7.1 -21.31,-21.31l0 -0.01z"/>
   <path class="fil3" d="M2523.75 735.55l28.41 28.42c4.52,4.52 6.46,10.33 6.46,16.14l0 94.28c0,16.14 -7.75,23.89 -23.25,23.89 -15.5,0 -23.89,-7.75 -23.89,-23.89l0 -134.32c0,-6.46 1.94,-9.69 4.52,-9.69 1.94,0 4.52,1.94 7.75,5.17l-0.01 -0.01z"/>
   <path class="fil3" d="M2525.04 659.35l14.85 0c6.46,0 11.62,2.58 16.14,6.46l152.41 156.93 0 -142.72c0,-15.5 8.39,-23.25 23.89,-23.25 15.5,0 23.25,7.75 23.25,23.25l0 201.49c0,11.62 -5.81,16.79 -16.79,16.79 -10.98,0 -20.67,-3.88 -28.41,-12.27l-191.15 -196.96c-4.76,-4.03 -7.61,-9.95 -7.7,-16.18 0,-9.04 4.52,-13.56 13.56,-13.56l-0.05 0.03z"/>
   <path class="fil3" d="M2396.52 656.77l0.64 0c15.5,0 23.25,7.75 23.25,22.6l0 195.67c0,15.5 -8.39,23.25 -23.89,23.25 -15.5,0 -23.25,-7.75 -23.25,-23.25l0 -195.67c0,-14.85 7.75,-22.6 23.25,-22.6z"/>
   <path class="fil3" d="M2078.15 681.31c0,-14.85 7.75,-22.6 23.25,-22.6l121.41 0c23.25,0 41.33,6.46 54.25,18.73 12.27,12.27 18.73,29.71 18.73,51.66 0,18.73 -4.52,34.23 -12.91,46.5 -9.04,12.27 -21.31,20.67 -37.45,25.19l56.83 76.85c3.88,4.52 4.52,9.04 2.58,12.27 -1.94,3.88 -5.81,5.82 -12.27,5.82l-14.85 -0.01c-6.46,0 -12.27,-1.29 -16.14,-3.88 -5.64,-3.74 -10.48,-8.58 -14.18,-14.27l-52.95 -72.33 -17.47 0.06c-14.21,0 -21.31,-7.1 -21.31,-21.31 0,-13.56 7.1,-20.67 21.31,-20.67l40.04 0c10.33,0 18.08,-2.58 23.25,-8.39 5.82,-5.17 8.39,-13.56 8.39,-23.89 0,-11.62 -1.94,-19.38 -5.81,-23.89 -3.88,-3.88 -12.91,-5.81 -25.83,-5.81l-91.7 0 0 173.72c0,15.5 -7.75,23.24 -23.89,23.24 -15.5,0 -23.25,-7.75 -23.25,-23.24l0 -193.74z"/>
   <path class="fil3" d="M1252.83 681.31c0,-14.85 7.75,-22.6 23.25,-22.6l121.41 0c23.25,0 41.33,6.46 54.25,18.73 12.92,12.27 19.38,29.71 19.38,51.66 0,18.73 -4.52,34.23 -13.56,46.5 -9.04,12.27 -21.31,20.67 -36.81,25.19l56.18 76.85c3.88,4.52 4.52,9.04 2.58,12.27 -1.29,3.88 -5.81,5.82 -11.62,5.82l-15.51 -0.01c-6.46,0 -11.62,-1.29 -16.14,-3.88 -3.88,-1.94 -8.39,-7.1 -14.21,-14.21l-52.31 -72.33 -18.08 0c-14.21,0 -21.31,-7.1 -21.31,-21.31 0,-13.56 7.1,-20.67 21.31,-20.67l40.69 0c9.69,0 17.44,-2.58 23.25,-8.39 5.17,-5.17 8.39,-13.56 8.39,-23.89 0,-11.62 -1.94,-19.38 -6.46,-23.89 -3.88,-3.88 -12.27,-5.81 -25.19,-5.81l-92.35 0 0 173.72c0,15.5 -7.75,23.24 -23.89,23.24 -15.5,0 -23.25,-7.75 -23.25,-23.24l0 -193.74z"/>
   <path class="fil3" d="M927.35 705.85c0,-14.85 4.52,-26.48 12.27,-34.23 8.39,-8.39 20.02,-12.91 34.87,-12.91l143.36 0c15.5,0 27.12,4.52 35.52,12.91 7.75,7.75 11.62,19.38 11.62,34.23l0 142.07c0,15.5 -3.88,27.12 -11.62,35.52 -8.39,8.39 -20.02,12.27 -35.52,12.27l-143.37 0c-14.85,0 -26.48,-3.88 -34.88,-12.27 -7.75,-8.39 -12.27,-20.02 -12.27,-35.52l0.01 -142.07zm47.14 -4.52l0 151.76 143.37 0 0 -151.76 -143.37 0z"/>
   <path class="fil3" d="M694.87 656.12l1.29 0c14.85,0 22.6,7.75 22.6,23.25l0 173.72 136.91 0c14.21,0 21.31,7.1 21.31,21.31 0,14.21 -7.1,21.31 -21.31,21.31l-160.8 0c-15.5,0 -23.24,-7.75 -23.24,-23.25l0 -193.09c0,-15.5 7.75,-23.25 23.24,-23.25l0 -0.01z"/>
   <path class="fil3" d="M346.14 705.85c0,-14.85 4.52,-26.48 12.27,-34.23 8.39,-8.39 20.02,-12.91 34.88,-12.91l144.01 0c14.85,0 26.48,4.52 34.87,12.91 7.75,7.75 12.27,19.38 12.27,34.23l0 142.07c0,15.5 -4.52,27.12 -12.27,35.52 -8.39,8.39 -20.02,12.27 -34.87,12.27l-144.01 0c-14.85,0 -26.48,-3.88 -34.88,-12.27 -7.75,-8.39 -12.27,-20.02 -12.27,-35.52l0 -142.07zm47.15 -4.52l0 151.76 144.01 0 0 -151.76 -144.01 0z"/>
   <path class="fil2" d="M51.66 608.98l187.28 0c15.5,0 23.25,7.75 23.25,23.25 0,15.5 -7.75,23.25 -23.25,23.25l-187.28 0 0 193.74 195.03 0c14.85,0 22.6,7.75 22.6,23.25 0,15.5 -7.75,23.25 -22.6,23.25l-195.03 0c-16.79,0 -29.06,-4.52 -38.1,-13.56 -9.04,-8.39 -13.56,-21.31 -13.56,-38.1l0 -183.4c0,-16.79 4.52,-29.71 13.56,-38.1 9.04,-9.04 21.31,-13.56 38.1,-13.56l0 -0.01z"/>
  </g>
 </g>
</svg>
